# xmcd
#
# Track frame offsets:
#	150
#	26493
#	43369
#	56460
#	76408
#	111751
#	132653
#	171444
#	198094
#	219658
#	235817
#	262926
#	282950
#
# Disc length: 4144 seconds
#
# Revision: 1
# Processed by: cddbd v1.5.2PL0 Copyright (c) Steve Scherf et al.
# Submitted via: audiograbber 1.82.01
#
DISCID=bc102e0d
DTITLE=Eric Clapton - The Budokan Blues - Disc 1
DYEAR=0000
DGENRE=Rock
TTITLE0=Layla
TTITLE1=Change The World
TTITLE2=Nobody Knows You When You're Down And Out
TTITLE3=Tears In Heaven
TTITLE4=Going Down Slow
TTITLE5=Before You Accuse Me
TTITLE6=I Shot The Sheriff
TTITLE7=White Room
TTITLE8=Wonderful Tonight
TTITLE9=I'm Tore Down
TTITLE10=Have You Ever Loved A Woman
TTITLE11=Cocaine
TTITLE12=Tearing Us Apart
EXTD=
EXTT0=
EXTT1=
EXTT2=
EXTT3=
EXTT4=
EXTT5=
EXTT6=
EXTT7=
EXTT8=
EXTT9=
EXTT10=
EXTT11=
EXTT12=
PLAYORDER=
